<svg xmlns="http://www.w3.org/2000/svg" viewBox="0 0 800 450" font-family="Segoe UI, Arial, sans-serif">
  <defs>
    <linearGradient id="bgq" x1="0" y1="0" x2="1" y2="1">
      <stop offset="0" stop-color="#1e1e22"/>
      <stop offset="1" stop-color="#0b0b0d"/>
    </linearGradient>
  </defs>
  <rect width="800" height="450" fill="url(#bgq)"/>
  <circle cx="650" cy="110" r="200" fill="#f59e0b" opacity="0.08"/>
  <g stroke="#f59e0b" stroke-width="4" fill="none" transform="translate(610,250)">
    <polygon points="0,-70 61,-35 61,35 0,70 -61,35 -61,-35"/>
    <line x1="0" y1="-70" x2="0" y2="-120"/>
    <line x1="61" y1="35" x2="105" y2="60"/>
    <line x1="-61" y1="35" x2="-105" y2="60"/>
  </g>
  <g fill="#f59e0b" transform="translate(610,250)">
    <circle cx="0" cy="-70" r="9"/><circle cx="61" cy="-35" r="9"/><circle cx="61" cy="35" r="9"/>
    <circle cx="0" cy="70" r="9"/><circle cx="-61" cy="35" r="9"/><circle cx="-61" cy="-35" r="9"/>
    <circle cx="0" cy="-120" r="12"/><circle cx="105" cy="60" r="12"/><circle cx="-105" cy="60" r="12"/>
  </g>
  <text x="60" y="180" fill="#ffffff" font-size="46" font-weight="700">Tutor de Química</text>
  <text x="60" y="230" fill="#f59e0b" font-size="32" font-weight="700">con IA generativa</text>
  <g font-size="18" font-weight="600">
    <rect x="60" y="280" width="118" height="36" rx="9" fill="#27272a"/>
    <text x="79" y="304" fill="#e4e4e7">LLM · RAG</text>
    <rect x="192" y="280" width="140" height="36" rx="9" fill="#27272a"/>
    <text x="210" y="304" fill="#e4e4e7">Fine-tuning</text>
    <rect x="346" y="280" width="120" height="36" rx="9" fill="#3a2c0a"/>
    <text x="362" y="304" fill="#fcd34d">96,3 %</text>
  </g>
</svg>
